<?xml version="1.0" standalone="no"?><svg version="1.1" xmlns="http://www.w3.org/2000/svg" width="1301.1510235192025" height="560.6096146790838"><svg x="889.1777484580304" y="93.3891582701246" width="73.9371749867978" height="277.8645570756199"><path d="M50.9371749867978,251.86455707561993L60.9371749867978,251.86455707561993Q70.9371749867978,251.86455707561993,70.9371749867978,241.86455707561993L70.9371749867978,32Q70.9371749867978,22,60.9371749867978,22L4,22L60.9371749867978,22Q70.9371749867978,22,70.9371749867978,32L70.9371749867978,241.86455707561993Q70.9371749867978,251.86455707561993,60.9371749867978,251.86455707561993L50.9371749867978,251.86455707561993L50.9371749867978,251.86455707561993ZM50.9371749867978,247.86455707561993L60.9371749867978,251.86455707561993L50.9371749867978,255.86455707561993M14,18L14,26" fill="none" stroke="#D3D3D3" stroke-width="1"></path><text x="53.9371749867978" y="248.86455707561993" style="font-family: &quot;Open Sans&quot;, sans-serif; font-size: 14px; font-weight: normal; fill: transparent;">*</text><text x="7" y="19" style="font-family: &quot;Open Sans&quot;, sans-serif; font-size: 14px; font-weight: normal; fill: transparent;">1</text></svg><svg x="441.3110945411918" y="356.20036500831765" width="348.9122273411364" height="48.05335033742688"><path d="M4,22L169.92943850185475,22Q169.9561136705682,22,169.9561136705682,22.02667516871344L169.9561136705682,22.02667516871344Q169.9561136705682,22.053350337426878,169.98278883928162,22.053350337426878L335.9122273411364,22.053350337426878L169.98278883928162,22.053350337426878Q169.9561136705682,22.053350337426878,169.9561136705682,22.02667516871344L169.9561136705682,22.02667516871344Q169.9561136705682,22,169.92943850185475,22L4,22L4,22M14,18L14,26M335.9122273411364,18.053350337426878L325.9122273411364,22.053350337426878L335.9122273411364,26.053350337426878" fill="none" stroke="#D3D3D3" stroke-width="1"></path><text x="7" y="19" style="font-family: &quot;Open Sans&quot;, sans-serif; font-size: 14px; font-weight: normal; fill: transparent;">1</text><text x="325.2012898411364" y="19.053350337426878" style="font-family: &quot;Open Sans&quot;, sans-serif; font-size: 14px; font-weight: normal; fill: transparent;">*</text></svg><svg x="441.3110945411918" y="356.20036500831765" width="364.6278439685368" height="171.4092496707662"><path d="M4,22L167.8139219842684,22Q177.8139219842684,22,177.8139219842684,32L177.8139219842684,135.4092496707662Q177.8139219842684,145.4092496707662,187.8139219842684,145.4092496707662L351.6278439685368,145.4092496707662L187.8139219842684,145.4092496707662Q177.8139219842684,145.4092496707662,177.8139219842684,135.4092496707662L177.8139219842684,32Q177.8139219842684,22,167.8139219842684,22L4,22L4,22M14,18L14,26M351.6278439685368,141.4092496707662L341.6278439685368,145.4092496707662L351.6278439685368,149.4092496707662" fill="none" stroke="#D3D3D3" stroke-width="1"></path><text x="7" y="19" style="font-family: &quot;Open Sans&quot;, sans-serif; font-size: 14px; font-weight: normal; fill: transparent;">1</text><text x="340.9169064685368" y="142.4092496707662" style="font-family: &quot;Open Sans&quot;, sans-serif; font-size: 14px; font-weight: normal; fill: transparent;">*</text></svg><svg x="960.3935283534786" y="371.53766616008164" width="160.36101079072387" height="189.0719485190022"><path d="M4,163.0719485190022L65.68050539536193,163.0719485190022Q75.68050539536193,163.0719485190022,75.68050539536193,153.0719485190022L75.68050539536193,32Q75.68050539536193,22,85.68050539536193,22L147.36101079072387,22L85.68050539536193,22Q75.68050539536193,22,75.68050539536193,32L75.68050539536193,153.0719485190022Q75.68050539536193,163.0719485190022,65.68050539536193,163.0719485190022L4,163.0719485190022L4,163.0719485190022M4,159.0719485190022L14,163.0719485190022L4,167.0719485190022M137.36101079072387,18L137.36101079072387,26" fill="none" stroke="#D3D3D3" stroke-width="1"></path><text x="7" y="160.0719485190022" style="font-family: &quot;Open Sans&quot;, sans-serif; font-size: 14px; font-weight: normal; fill: transparent;">*</text><text x="136.35612797822387" y="19" style="font-family: &quot;Open Sans&quot;, sans-serif; font-size: 14px; font-weight: normal; fill: transparent;">1</text></svg><svg x="889.1777484580304" y="27.5" width="147.03350318103696" height="113.8891582701246"><path d="M4,87.8891582701246L59.01675159051848,87.8891582701246Q69.01675159051848,87.8891582701246,69.01675159051848,77.8891582701246L69.01675159051848,32Q69.01675159051848,22,79.01675159051848,22L134.03350318103696,22L79.01675159051848,22Q69.01675159051848,22,69.01675159051848,32L69.01675159051848,77.8891582701246Q69.01675159051848,87.8891582701246,59.01675159051848,87.8891582701246L4,87.8891582701246L4,87.8891582701246M14,83.8891582701246L14,91.8891582701246M134.03350318103696,18L124.03350318103696,22L134.03350318103696,26" fill="none" stroke="#D3D3D3" stroke-width="1"></path><text x="7" y="84.8891582701246" style="font-family: &quot;Open Sans&quot;, sans-serif; font-size: 14px; font-weight: normal; fill: transparent;">1</text><text x="123.32256568103696" y="19" style="font-family: &quot;Open Sans&quot;, sans-serif; font-size: 14px; font-weight: normal; fill: transparent;">*</text></svg><svg x="441.3110945411918" y="182.75392595183936" width="62.986039932194814" height="221.44643905647828"><path d="M4,195.44643905647828L16.993019966097407,195.44643905647828Q26.993019966097407,195.44643905647828,26.993019966097407,185.44643905647828L26.993019966097407,32Q26.993019966097407,22,36.99301996609741,22L49.986039932194814,22L36.99301996609741,22Q26.993019966097407,22,26.993019966097407,32L26.993019966097407,185.44643905647828Q26.993019966097407,195.44643905647828,16.993019966097407,195.44643905647828L4,195.44643905647828L4,195.44643905647828M14,191.44643905647828L14,199.44643905647828M49.986039932194814,18L39.986039932194814,22L49.986039932194814,26" fill="none" stroke="#D3D3D3" stroke-width="1"></path><text x="7" y="192.44643905647828" style="font-family: &quot;Open Sans&quot;, sans-serif; font-size: 14px; font-weight: normal; fill: transparent;">1</text><text x="39.275102432194814" y="19" style="font-family: &quot;Open Sans&quot;, sans-serif; font-size: 14px; font-weight: normal; fill: transparent;">*</text></svg><svg x="650.1887360358866" y="93.3891582701246" width="67.90356320339379" height="170.36476768171477"><path d="M4,144.36476768171477L19.451781601696894,144.36476768171477Q29.451781601696894,144.36476768171477,29.451781601696894,134.36476768171477L29.451781601696894,32Q29.451781601696894,22,39.451781601696894,22L54.90356320339379,22L39.451781601696894,22Q29.451781601696894,22,29.451781601696894,32L29.451781601696894,134.36476768171477Q29.451781601696894,144.36476768171477,19.451781601696894,144.36476768171477L4,144.36476768171477L4,144.36476768171477M4,140.36476768171477L14,144.36476768171477L4,148.36476768171477M44.90356320339379,18L44.90356320339379,26" fill="none" stroke="#D3D3D3" stroke-width="1"></path><text x="7" y="141.36476768171477" style="font-family: &quot;Open Sans&quot;, sans-serif; font-size: 14px; font-weight: normal; fill: transparent;">*</text><text x="43.89868039089379" y="19" style="font-family: &quot;Open Sans&quot;, sans-serif; font-size: 14px; font-weight: normal; fill: transparent;">1</text></svg><svg x="179.064453125" y="356.20036500831765" width="60.21636797869178" height="109.15135941793528"><path d="M4,83.15135941793528L15.60818398934589,83.15135941793528Q25.60818398934589,83.15135941793528,25.60818398934589,73.15135941793528L25.60818398934589,32Q25.60818398934589,22,35.60818398934589,22L47.21636797869178,22L35.60818398934589,22Q25.60818398934589,22,25.60818398934589,32L25.60818398934589,73.15135941793528Q25.60818398934589,83.15135941793528,15.60818398934589,83.15135941793528L4,83.15135941793528L4,83.15135941793528M14,79.15135941793528L14,87.15135941793528M37.21636797869178,18L37.21636797869178,26" fill="none" stroke="#D3D3D3" stroke-width="1"></path><text x="7" y="80.15135941793528" style="font-family: &quot;Open Sans&quot;, sans-serif; font-size: 14px; font-weight: normal; fill: transparent;">1</text><text x="36.21148516619178" y="19" style="font-family: &quot;Open Sans&quot;, sans-serif; font-size: 14px; font-weight: normal; fill: transparent;">1</text></svg><svg x="1226.8030485140673" y="27.5" width="37.97506672661598" height="210.15848545674646"><path d="M14.975066726615978,184.15848545674646L24.975066726615978,184.15848545674646Q34.97506672661598,184.15848545674646,34.97506672661598,174.15848545674646L34.97506672661598,32Q34.97506672661598,22,24.975066726615978,22L4,22L24.975066726615978,22Q34.97506672661598,22,34.97506672661598,32L34.97506672661598,174.15848545674646Q34.97506672661598,184.15848545674646,24.975066726615978,184.15848545674646L14.975066726615978,184.15848545674646L14.975066726615978,184.15848545674646ZM24.975066726615978,180.15848545674646L24.975066726615978,188.15848545674646M14,18L14,26" fill="none" stroke="#D3D3D3" stroke-width="1"></path><text x="17.975066726615978" y="181.15848545674646" style="font-family: &quot;Open Sans&quot;, sans-serif; font-size: 14px; font-weight: normal; fill: transparent;">1</text><text x="7" y="19" style="font-family: &quot;Open Sans&quot;, sans-serif; font-size: 14px; font-weight: normal; fill: transparent;">1</text></svg><svg x="705.0922992392804" y="65.8891582701246"><rect x="0" y="0" width="188.08544921875" height="33" fill="#316896"></rect><text x="10" y="19.75" style="font-family: &quot;Open Sans&quot;, sans-serif; font-size: 13px; font-weight: bold; fill: rgb(255, 255, 255);">users</text></svg><svg x="705.0922992392804" y="98.8891582701246"><rect x="0" y="0" width="188.08544921875" height="33" fill="#F2F2F2"></rect><text x="10" y="19.75" style="font-family: &quot;Open Sans&quot;, sans-serif; font-size: 13px; font-weight: bold; fill: black;">id</text><text x="131.322265625" y="19.75" style="font-family: &quot;Open Sans&quot;, sans-serif; font-size: 13px; font-weight: bold; fill: black;">integer</text></svg><svg x="705.0922992392804" y="131.8891582701246"><rect x="0" y="0" width="188.08544921875" height="33" fill="#F2F2F2"></rect><text x="10" y="19.75" style="font-family: &quot;Open Sans&quot;, sans-serif; font-size: 13px; fill: rgb(111, 111, 111);">name</text><text x="102.3515625" y="19.75" style="font-family: &quot;Open Sans&quot;, sans-serif; font-size: 13px; fill: rgb(111, 111, 111);">varchar(300)</text></svg><svg x="705.0922992392804" y="164.8891582701246"><rect x="0" y="0" width="188.08544921875" height="33" fill="#F2F2F2"></rect><text x="10" y="19.75" style="font-family: &quot;Open Sans&quot;, sans-serif; font-size: 13px; fill: rgb(111, 111, 111);">email</text><text x="102.3515625" y="19.75" style="font-family: &quot;Open Sans&quot;, sans-serif; font-size: 13px; fill: rgb(111, 111, 111);">varchar(200)</text></svg><svg x="705.0922992392804" y="197.8891582701246"><rect x="0" y="0" width="188.08544921875" height="33" fill="#F2F2F2"></rect><text x="10" y="19.75" style="font-family: &quot;Open Sans&quot;, sans-serif; font-size: 13px; fill: rgb(111, 111, 111);">login</text><text x="102.3515625" y="19.75" style="font-family: &quot;Open Sans&quot;, sans-serif; font-size: 13px; fill: rgb(111, 111, 111);">varchar(200)</text></svg><svg x="705.0922992392804" y="230.8891582701246"><rect x="0" y="0" width="188.08544921875" height="33" fill="#F2F2F2"></rect><text x="10" y="19.75" style="font-family: &quot;Open Sans&quot;, sans-serif; font-size: 13px; fill: rgb(111, 111, 111);">birthday</text><text x="135.22607421875" y="19.75" style="font-family: &quot;Open Sans&quot;, sans-serif; font-size: 13px; fill: rgb(111, 111, 111);">integer</text></svg><svg x="226.28082110369178" y="328.70036500831765"><rect x="0" y="0" width="219.0302734375" height="33" fill="#316896"></rect><text x="10" y="19.75" style="font-family: &quot;Open Sans&quot;, sans-serif; font-size: 13px; font-weight: bold; fill: rgb(255, 255, 255);">films</text></svg><svg x="226.28082110369178" y="361.70036500831765"><rect x="0" y="0" width="219.0302734375" height="33" fill="#F2F2F2"></rect><text x="10" y="19.75" style="font-family: &quot;Open Sans&quot;, sans-serif; font-size: 13px; font-weight: bold; fill: black;">id</text><text x="162.26708984375" y="19.75" style="font-family: &quot;Open Sans&quot;, sans-serif; font-size: 13px; font-weight: bold; fill: black;">integer</text></svg><svg x="226.28082110369178" y="394.70036500831765"><rect x="0" y="0" width="219.0302734375" height="33" fill="#F2F2F2"></rect><text x="10" y="19.75" style="font-family: &quot;Open Sans&quot;, sans-serif; font-size: 13px; fill: rgb(111, 111, 111);">name</text><text x="133.29638671875" y="19.75" style="font-family: &quot;Open Sans&quot;, sans-serif; font-size: 13px; fill: rgb(111, 111, 111);">varchar(300)</text></svg><svg x="226.28082110369178" y="427.70036500831765"><rect x="0" y="0" width="219.0302734375" height="33" fill="#F2F2F2"></rect><text x="10" y="19.75" style="font-family: &quot;Open Sans&quot;, sans-serif; font-size: 13px; fill: rgb(111, 111, 111);">description</text><text x="163.263671875" y="19.75" style="font-family: &quot;Open Sans&quot;, sans-serif; font-size: 13px; fill: rgb(111, 111, 111);">varchar</text></svg><svg x="226.28082110369178" y="460.70036500831765"><rect x="0" y="0" width="219.0302734375" height="33" fill="#F2F2F2"></rect><text x="10" y="19.75" style="font-family: &quot;Open Sans&quot;, sans-serif; font-size: 13px; fill: rgb(111, 111, 111);">releaseDate</text><text x="143.73828125" y="19.75" style="font-family: &quot;Open Sans&quot;, sans-serif; font-size: 13px; fill: rgb(111, 111, 111);">timestamp</text></svg><svg x="226.28082110369178" y="493.70036500831765"><rect x="0" y="0" width="219.0302734375" height="33" fill="#F2F2F2"></rect><text x="10" y="19.75" style="font-family: &quot;Open Sans&quot;, sans-serif; font-size: 13px; fill: rgb(111, 111, 111);">duration</text><text x="143.73828125" y="19.75" style="font-family: &quot;Open Sans&quot;, sans-serif; font-size: 13px; fill: rgb(111, 111, 111);">timestamp</text></svg><svg x="777.2233218823282" y="295.7537153457445"><rect x="0" y="0" width="162.8916015625" height="33" fill="#316896"></rect><text x="10" y="19.75" style="font-family: &quot;Open Sans&quot;, sans-serif; font-size: 13px; font-weight: bold; fill: rgb(255, 255, 255);">user_films</text></svg><svg x="777.2233218823282" y="328.7537153457445"><rect x="0" y="0" width="162.8916015625" height="33" fill="#F2F2F2"></rect><text x="10" y="19.75" style="font-family: &quot;Open Sans&quot;, sans-serif; font-size: 13px; font-weight: bold; fill: black;">user_id</text><text x="106.12841796875" y="19.75" style="font-family: &quot;Open Sans&quot;, sans-serif; font-size: 13px; font-weight: bold; fill: black;">integer</text></svg><svg x="777.2233218823282" y="361.7537153457445"><rect x="0" y="0" width="162.8916015625" height="33" fill="#F2F2F2"></rect><text x="10" y="19.75" style="font-family: &quot;Open Sans&quot;, sans-serif; font-size: 13px; font-weight: bold; fill: black;">film_id</text><text x="106.12841796875" y="19.75" style="font-family: &quot;Open Sans&quot;, sans-serif; font-size: 13px; font-weight: bold; fill: black;">integer</text></svg><svg x="1023.2112516390673" y="0"><rect x="0" y="0" width="207.591796875" height="33" fill="#316896"></rect><text x="10" y="19.75" style="font-family: &quot;Open Sans&quot;, sans-serif; font-size: 13px; font-weight: bold; fill: rgb(255, 255, 255);">friends</text></svg><svg x="1023.2112516390673" y="33"><rect x="0" y="0" width="207.591796875" height="33" fill="#F2F2F2"></rect><text x="10" y="19.75" style="font-family: &quot;Open Sans&quot;, sans-serif; font-size: 13px; font-weight: bold; fill: black;">user_id</text><text x="150.82861328125" y="19.75" style="font-family: &quot;Open Sans&quot;, sans-serif; font-size: 13px; font-weight: bold; fill: black;">integer</text></svg><svg x="1023.2112516390673" y="66"><rect x="0" y="0" width="207.591796875" height="33" fill="#F2F2F2"></rect><text x="10" y="19.75" style="font-family: &quot;Open Sans&quot;, sans-serif; font-size: 13px; font-weight: bold; fill: black;">user_friend_id</text><text x="150.82861328125" y="19.75" style="font-family: &quot;Open Sans&quot;, sans-serif; font-size: 13px; font-weight: bold; fill: black;">integer</text></svg><svg x="1078.8865136781833" y="162.15848545674646"><rect x="0" y="0" width="162.8916015625" height="33" fill="#316896"></rect><text x="10" y="19.75" style="font-family: &quot;Open Sans&quot;, sans-serif; font-size: 13px; font-weight: bold; fill: rgb(255, 255, 255);">status_friends</text></svg><svg x="1078.8865136781833" y="195.15848545674646"><rect x="0" y="0" width="162.8916015625" height="33" fill="#F2F2F2"></rect><text x="10" y="19.75" style="font-family: &quot;Open Sans&quot;, sans-serif; font-size: 13px; font-weight: bold; fill: black;">user_id</text><text x="106.12841796875" y="19.75" style="font-family: &quot;Open Sans&quot;, sans-serif; font-size: 13px; font-weight: bold; fill: black;">integer</text></svg><svg x="1078.8865136781833" y="228.15848545674646"><rect x="0" y="0" width="162.8916015625" height="33" fill="#F2F2F2"></rect><text x="10" y="19.75" style="font-family: &quot;Open Sans&quot;, sans-serif; font-size: 13px; fill: rgb(111, 111, 111);">status</text><text x="110.0322265625" y="19.75" style="font-family: &quot;Open Sans&quot;, sans-serif; font-size: 13px; fill: rgb(111, 111, 111);">integer</text></svg><svg x="491.29713447338656" y="155.25392595183936"><rect x="0" y="0" width="162.8916015625" height="33" fill="#316896"></rect><text x="10" y="19.75" style="font-family: &quot;Open Sans&quot;, sans-serif; font-size: 13px; font-weight: bold; fill: rgb(255, 255, 255);">likes</text></svg><svg x="491.29713447338656" y="188.25392595183936"><rect x="0" y="0" width="162.8916015625" height="33" fill="#F2F2F2"></rect><text x="10" y="19.75" style="font-family: &quot;Open Sans&quot;, sans-serif; font-size: 13px; font-weight: bold; fill: black;">film_id</text><text x="106.12841796875" y="19.75" style="font-family: &quot;Open Sans&quot;, sans-serif; font-size: 13px; font-weight: bold; fill: black;">integer</text></svg><svg x="491.29713447338656" y="221.25392595183936"><rect x="0" y="0" width="162.8916015625" height="33" fill="#F2F2F2"></rect><text x="10" y="19.75" style="font-family: &quot;Open Sans&quot;, sans-serif; font-size: 13px; font-weight: bold; fill: black;">user_id</text><text x="106.12841796875" y="19.75" style="font-family: &quot;Open Sans&quot;, sans-serif; font-size: 13px; font-weight: bold; fill: black;">integer</text></svg><svg x="1107.7545391442025" y="344.03766616008164"><rect x="0" y="0" width="188.396484375" height="33" fill="#316896"></rect><text x="10" y="19.75" style="font-family: &quot;Open Sans&quot;, sans-serif; font-size: 13px; font-weight: bold; fill: rgb(255, 255, 255);">genres</text></svg><svg x="1107.7545391442025" y="377.03766616008164"><rect x="0" y="0" width="188.396484375" height="33" fill="#F2F2F2"></rect><text x="10" y="19.75" style="font-family: &quot;Open Sans&quot;, sans-serif; font-size: 13px; font-weight: bold; fill: black;">genre_id</text><text x="131.63330078125" y="19.75" style="font-family: &quot;Open Sans&quot;, sans-serif; font-size: 13px; font-weight: bold; fill: black;">integer</text></svg><svg x="1107.7545391442025" y="410.03766616008164"><rect x="0" y="0" width="188.396484375" height="33" fill="#F2F2F2"></rect><text x="10" y="19.75" style="font-family: &quot;Open Sans&quot;, sans-serif; font-size: 13px; fill: rgb(111, 111, 111);">genre</text><text x="102.66259765625" y="19.75" style="font-family: &quot;Open Sans&quot;, sans-serif; font-size: 13px; fill: rgb(111, 111, 111);">varchar(200)</text></svg><svg x="792.9389385097286" y="452.10961467908385"><rect x="0" y="0" width="171.45458984375" height="33" fill="#316896"></rect><text x="10" y="19.75" style="font-family: &quot;Open Sans&quot;, sans-serif; font-size: 13px; font-weight: bold; fill: rgb(255, 255, 255);">film_genres</text></svg><svg x="792.9389385097286" y="485.10961467908385"><rect x="0" y="0" width="171.45458984375" height="33" fill="#F2F2F2"></rect><text x="10" y="19.75" style="font-family: &quot;Open Sans&quot;, sans-serif; font-size: 13px; font-weight: bold; fill: black;">film_id</text><text x="114.69140625" y="19.75" style="font-family: &quot;Open Sans&quot;, sans-serif; font-size: 13px; font-weight: bold; fill: black;">integer</text></svg><svg x="792.9389385097286" y="518.1096146790838"><rect x="0" y="0" width="171.45458984375" height="33" fill="#F2F2F2"></rect><text x="10" y="19.75" style="font-family: &quot;Open Sans&quot;, sans-serif; font-size: 13px; font-weight: bold; fill: black;">genre_id</text><text x="114.69140625" y="19.75" style="font-family: &quot;Open Sans&quot;, sans-serif; font-size: 13px; font-weight: bold; fill: black;">integer</text></svg><svg x="0" y="389.85172442625293"><rect x="0" y="0" width="183.064453125" height="33" fill="#316896"></rect><text x="10" y="19.75" style="font-family: &quot;Open Sans&quot;, sans-serif; font-size: 13px; font-weight: bold; fill: rgb(255, 255, 255);">rating_MPA</text></svg><svg x="0" y="422.85172442625293"><rect x="0" y="0" width="183.064453125" height="33" fill="#F2F2F2"></rect><text x="10" y="19.75" style="font-family: &quot;Open Sans&quot;, sans-serif; font-size: 13px; font-weight: bold; fill: black;">id</text><text x="126.30126953125" y="19.75" style="font-family: &quot;Open Sans&quot;, sans-serif; font-size: 13px; font-weight: bold; fill: black;">integer</text></svg><svg x="0" y="455.85172442625293"><rect x="0" y="0" width="183.064453125" height="33" fill="#F2F2F2"></rect><text x="10" y="19.75" style="font-family: &quot;Open Sans&quot;, sans-serif; font-size: 13px; fill: rgb(111, 111, 111);">rating</text><text x="104.763671875" y="19.75" style="font-family: &quot;Open Sans&quot;, sans-serif; font-size: 13px; fill: rgb(111, 111, 111);">varchar(50)</text></svg></svg>